<?xml version="1.0" encoding="UTF-8"?>
<svg width="700px" height="530px" viewBox="0 0 700 530" version="1.1" xmlns="http://www.w3.org/2000/svg" xmlns:xlink="http://www.w3.org/1999/xlink">
    <title>icons-rounded</title>
    <g id="Page-1" stroke="none" stroke-width="1" fill="none" fill-rule="evenodd">
        <g id="icons-rounded">
            <rect id="Rectangle" fill="#f2f2f2" x="0" y="0" width="700" height="530"></rect>
            <path d="M232,246 C229.790861,246 228,247.790861 228,250 C228,252.209139 229.790861,254 232,254 C234.209139,254 236,252.209139 236,250 C236,247.790861 234.209139,246 232,246 Z M225,250 C225.249222,246.54666 227.634195,243.696051 231,243 C234.187854,242.521082 237.414823,244.365557 239,247 C239.72743,250.608316 238.480762,254.109558 236,256 C232.742868,257.486642 229.07614,256.877219 227,254 L208,263 C208.85869,264.27564 208.85869,265.719466 208,267 L227,276 C229.208314,272.968549 233.160778,272.469175 236,274 C238.948205,276.506831 239.843471,280.388272 238,283 C236.409107,286.552352 232.637109,287.834138 229,286 C226.157391,285.039023 224.501774,281.415962 226,278 L207,269 C205.219033,271.656232 202.185162,272.442195 199,271 C196.790531,270.445227 195,267.873382 195,265 C195,262.121724 196.790531,259.549879 199,259 C202.185162,257.552911 205.219033,258.338874 207,261 L226,252 C225.355586,251.273857 225.248939,250.576577 225,250 Z M202,261 C199.790861,261 198,262.790861 198,265 C198,267.209139 199.790861,269 202,269 C204.209139,269 206,267.209139 206,265 C206,262.790861 204.209139,261 202,261 L202,261 Z M232,276 C229.790861,276 228,277.790861 228,280 C228,282.209139 229.790861,284 232,284 C234.209139,284 236,282.209139 236,280 C236,277.790861 234.209139,276 232,276 Z" id="share" fill="#767676"></path>
            <path d="M145.197143,241 C147.844572,241 150,243.162 150,245.841 L150,245.841 L150,288 L144.962857,283.535 L142.128,280.903 L139.129143,278.1065 L140.370857,282.454 L113.802857,282.454 C111.155429,282.454 109,280.292 109,277.613 L109,277.613 L109,245.841 C109,243.162 111.155429,241 113.802857,241 L113.802857,241 Z M125.819614,251.999921 L125.781272,251.999867 C125.391877,252.002572 122.430573,252.104093 119.328767,254.500173 C119.328767,254.500173 116,260.714397 116,268.380988 C116,268.380988 117.941781,271.833335 123.050514,272 C123.050514,272 123.905822,270.928582 124.599315,270.023829 C121.663527,269.119076 120.553938,267.214333 120.553938,267.214333 C120.553938,267.214333 120.785103,267.380998 121.201199,267.619091 C121.224315,267.6429 121.247432,267.66671 121.293664,267.690519 C121.363014,267.738137 121.432363,267.761947 121.501712,267.809565 C122.045524,268.11894 122.609355,268.389417 123.189212,268.619081 C124.289264,269.06628 125.426702,269.408973 126.587329,269.64288 C128.564262,270.034057 130.59468,270.042131 132.574486,269.66669 C133.660959,269.476215 134.770548,269.142885 135.92637,268.64289 C136.735445,268.33337 137.636986,267.880993 138.58476,267.238142 C138.58476,267.238142 137.428938,269.190504 134.400685,270.071448 C134.470034,270.161923 134.540771,270.253589 134.611923,270.345302 L134.825658,270.619442 C135.393767,271.344768 135.92637,272 135.92637,272 C140.812984,271.840581 142.823196,268.674981 142.98876,268.400013 L143,268.380988 C143,260.714397 139.671233,254.500173 139.671233,254.500173 C136.569427,252.104093 133.608123,252.002572 133.218728,251.999867 L133.180386,251.999921 L133.180386,251.999921 L133.175514,252 L132.851884,252.381146 C136.781678,253.619229 138.607877,255.404926 138.607877,255.404926 C135.065743,253.392729 130.98893,252.608024 126.980308,253.166853 C126.84161,253.166853 126.726027,253.190662 126.587329,253.214472 C125.778253,253.285899 123.813356,253.59542 121.339897,254.714457 C120.484589,255.119215 119.976027,255.404926 119.976027,255.404926 C119.976027,255.404926 121.894692,253.523992 126.055651,252.285909 L126.055651,252.285909 L125.824486,252 C125.824486,252 125.82285,251.999963 125.819614,251.999921 Z M125.499804,261 C126.896753,261 128.024116,262.126126 127.999608,263.5 C127.999608,264.873874 126.896753,266 125.499804,266 C124.127363,266 123,264.873874 123,263.5 C123,262.126126 124.102855,261 125.499804,261 Z M133.5,261 C134.897059,261 136,262.126126 136,263.5 C136,264.873874 134.897059,266 133.5,266 C132.127451,266 131,264.873874 131,263.5 C131,262.126126 132.102941,261 133.5,261 Z" id="Combined-Shape" fill="#767676"></path>
            <path d="M151,390.134733 C151,377.909761 141.150731,368 129.00275,368 C116.849269,368.00275 107,377.909761 107,390.137483 C107,401.182852 115.045494,410.339208 125.56018,412 L125.56018,396.533183 L119.978378,396.533183 L119.978378,390.137483 L125.565679,390.137483 L125.565679,385.256843 C125.565679,379.710786 128.851519,376.647669 133.875141,376.647669 C136.28384,376.647669 138.799775,377.079365 138.799775,377.079365 L138.799775,382.523685 L136.025372,382.523685 C133.294963,382.523685 132.44257,384.231221 132.44257,385.982752 L132.44257,390.134733 L138.541307,390.134733 L137.567929,396.530434 L132.43982,396.530434 L132.43982,411.99725 C142.954506,410.336458 151,401.180102 151,390.134733 Z" id="facebook" fill="#767676"></path>
            <path d="M590.610021,386.035357 C590.871717,387.511944 591.00219,389.008007 591,390.506709 C591,397.199988 588.55927,402.859302 584.311887,406.689925 L584.317497,406.689925 C580.603141,410.053064 575.497304,412 569.44324,412 C557.048181,412 547,402.150589 547,390.000726 C547,377.850862 557.048181,368.001452 569.44324,368.001452 C575.014601,367.937493 580.395103,369.989176 584.457768,373.726763 L578.050223,380.007556 C575.734021,377.843307 572.642798,376.658142 569.44324,376.707664 C563.58836,376.707664 558.614377,380.579537 556.841361,385.793365 C555.901287,388.525414 555.901287,391.484287 556.841361,394.216337 L556.849777,394.216337 C558.631209,399.421915 563.596776,403.293787 569.451656,403.293787 C572.475883,403.293787 575.073688,402.534812 577.087969,401.192857 L577.079553,401.192857 C579.443006,399.658074 581.063639,397.242925 581.565395,394.507827 L569.44324,394.507827 L569.44324,386.038107 L590.610021,386.038107 L590.610021,386.035357 Z" id="google" fill="#767676"></path>
            <path d="M195,123 C195,121.41075 196.4465,120 198,120 L236,120 C237.5535,120 239,121.41075 239,123 L239,161 C239,162.58925 237.5535,164 236,164 L198,164 C196.4465,164 195,162.58925 195,161 L195,123 Z M209,157 L209,137 L202,137 L202,157 L209,157 Z M205,134 C207.649759,134 209,132.446314 209,131 C208.961126,128.511619 207.652351,127 206,127 C203.391707,127 202,128.514423 202,131 C202,132.446314 203.350241,134 205,134 L205,134 Z M219,156 L219,145 C218.549325,144.504597 218.592987,143.920498 219,144 C219.239733,142.338561 220.317642,141.1298 222,141 C224.501023,141.1298 225.447947,142.919957 225,146 L225,156 L232,156 L232,145 C232,138.790698 228.769,136 224,136 C220.980761,136 219.422568,137.892915 219,139 L219,139 L219,139 C218.520156,139.271099 218.53471,139.248564 219,139 L219,136 L212,136 C212.081867,138.295836 212,156 212,156 L219,156 L219,156 Z" id="linkedin" fill="#767676"></path>
            <path d="M327,142 C327,154.150264 317.150264,164 305,164 C292.849736,164 283,154.150264 283,142 C283,129.849736 292.849736,120 305,120 C317.150264,120 327,129.849736 327,142 Z M306,136 C303.390342,136.928261 299.091742,138.789444 293,142 C291.605107,142.028459 291.05535,142.439586 291,143 C290.922746,143.514628 291.765337,143.781305 293,144 L293,144 C294.522408,144.66745 296.041836,145.098023 297,145 C297.547451,145.131357 298.345841,144.836901 299,144 C305.246807,140.139497 308.354727,138.075528 309,138 C308.686239,137.997747 308.879621,137.958857 309,138 C309.136542,138.189421 309.122729,138.408874 309,138 C309.026038,138.825557 305.719211,141.914566 304,144 C303.475983,144.014647 303.097507,144.367439 303,144 C302.849821,144.623038 302.676675,144.79529 303,145 C301.451,145.98139 300.666422,146.742531 303,148 C303.445594,148.587047 304.169394,149.078733 305,150 C305.675009,150.112106 306.459586,150.648238 307,151 C307.733143,151.48716 307.981777,151.667722 308,152 C309.136542,152.495532 309.962558,153.084444 311,153 C311.567627,152.934438 312.17816,152.378861 312,151 C313.219659,146.775866 314.658972,138.250535 315,135 C315.010713,134.444393 314.998668,134.150922 315,134 C314.928563,133.627914 314.816141,133.412733 315,133 C314.388262,133.084194 314.088605,132.993799 314,133 C312.95445,133.01422 311.675368,133.46146 306,136 L306,136 Z" id="telegram" fill="#767676"></path>
            <path d="M414,118 L414,141.5 L398.621263,156.607563 L391.792912,156.607563 L383.251495,165 L383.251495,156.607563 L373,156.607563 L373,126.392438 L381.541418,118 L414,118 Z M410,121 L383,121 L383,146.134897 L390.593196,146.134897 L390.593196,152 L396.5,146.134897 L403.251477,146.134897 L410,139.434018 L410,121 Z M406,127 L406,137 L403,137 L403,127 L406,127 Z M396,127 L396,137 L393,137 L393,127 L396,127 Z" id="Combined-Shape" fill="#767676"></path>
            <path d="M472.8215,160 C489.426,160 498.50925,146.146392 498.50925,134.153593 C498.50925,133.765925 498.50925,133.372718 498.49275,132.98505 C500.261162,131.696013 501.787415,130.100109 503,128.27211 C501.348114,129.005497 499.597592,129.488851 497.80525,129.706483 C499.693217,128.570166 501.10724,126.782269 501.7845,124.675101 C500.010716,125.733225 498.06929,126.476024 496.04525,126.870966 C493.247594,123.870839 488.798384,123.135006 485.194679,125.076441 C481.590974,127.017877 479.730019,131.153206 480.65625,135.161531 C473.397125,134.795017 466.633437,131.343942 462.047,125.666425 C459.657632,129.821792 460.882605,135.131259 464.8465,137.800445 C463.415235,137.751481 462.015432,137.364484 460.76,136.670669 L460.76,136.795276 C460.765088,141.119388 463.789986,144.843396 467.998,145.706111 C467.223223,145.921029 466.422881,146.02817 465.61925,146.024553 C465.052706,146.026283 464.487296,145.97343 463.93075,145.866717 C465.113539,149.568532 468.503687,152.102888 472.365,152.171866 C469.165526,154.702232 465.213353,156.074597 461.145,156.067934 C460.428132,156.070982 459.711764,156.029366 459,155.943326 C463.129166,158.594048 467.924569,160.00152 472.8215,160 Z" id="twitter" fill="#767676"></path>
            <path d="M409,249.000134 C404.478627,245.284244 398.898332,242.979752 393,243.000134 C381.019332,243.000134 371.187845,252.78471 371,265.000134 C371.176795,268.643863 372.187845,272.38659 374,276.000134 L371,287 L383,284.000134 C385.825973,285.710021 389.425215,286.622322 393,287 L393,287 C405.160205,286.623252 414.98893,276.838812 414.99999,265.000134 C415.005557,259.028501 412.690683,253.478236 409,249.000134 L409,249.000134 Z M393,283 C389.767118,283.001082 386.600375,282.133226 384,280 L383,280 L376,282 L378,275 L378,275 C375.947374,271.684504 374.993605,268.365783 375,265 C375,255.077698 383.077409,247 393,247 C397.780616,246.991463 402.36289,248.889681 406,252 C409.115684,255.643504 411.011596,260.224563 411,265 C410.98902,274.935984 402.911644,283 393,283 L393,283 Z M403,270 C402.343023,269.669488 399.683644,268.324153 399,268 C398.686035,267.950605 398.322522,267.855111 398,268 C397.603697,268.964521 396.565091,270.225597 396,271 C395.941927,270.961459 395.619412,271.003588 395,271 C394.539808,270.447479 392.793309,269.863283 391,268 C389.114455,266.487307 388.034851,264.661696 388,264 C387.400754,263.552286 387.682271,263.254571 388,263 C388.190642,262.729357 388.491291,262.324914 389,262 C389.035193,261.684545 389.125388,261.44862 389,261 C389.480701,260.701524 389.395972,260.38134 389,260 C389.125388,259.825231 388.045784,257.081197 388,256 C387.152035,254.882037 386.706528,255.033704 386,255 C386.061498,255 385.697986,255 385,255 C384.779524,255.014174 384.255488,255.265612 384,256 C383.391186,256.249841 382,257.595176 382,260 C382,263.083244 383.940554,265.72055 384,266 C384.481723,266.467647 388.023918,272.082103 393,274 C394.744796,275.073297 395.756071,275.413141 397,276 C397.844217,276.098448 399.016749,276.033849 400,276 C400.990101,275.733325 403.152043,274.548083 404,273 C404.056724,271.94448 404.056724,270.832262 404,271 C403.78614,270.36322 403.422627,270.225597 403,270 Z" id="whatsapp" fill="#767676"></path>
            <path d="M140,120 C146.075132,120 151,124.924868 151,131 L151,131 L151,153 C151,159.075132 146.075132,164 140,164 L140,164 L118,164 C111.924868,164 107,159.075132 107,153 L107,153 L107,131 C107,124.924868 111.924868,120 118,120 L118,120 Z M130.081094,130 L121,130 L121,153 L130.284143,153 C135.103882,153 138,150.529982 138,146.4822 C138,143.484447 135.96684,141.270136 132.913091,140.951863 L132.913091,140.951863 L132.913091,140.679834 C135.138614,140.296274 136.875216,138.14453 136.875216,135.739799 C136.875216,132.20071 134.321075,130 130.081094,130 L130.081094,130 Z M129.9137,143 C133.247033,143 135,144.189358 135,146.462752 C135,148.766972 133.311758,150 130.118662,150 L130.118662,150 L125,150 L125,143 Z M129.822396,133 C132.458459,133 134,134.296717 134,136.509931 C134,138.78557 132.363636,140 129.220951,140 L125,140 L125,133 L129.822396,133 Z" id="Combined-Shape" fill="#767676"></path>
            <path d="M292,270 C292,272.97828 289.976205,275 288,275 C285.023795,275 283,272.97828 283,271 C283,268.024398 285.023795,266 287,266 L292,266 L292,270 Z M295,271 C295,268.097226 297.023795,266 300,266 C301.976205,266 304,268.097226 304,271 L304,282 C304,284.902774 301.976205,287 300,287 C297.019834,286.99543 295.007364,284.91242 295,282 L295,271 L295,271 Z M300,252 C297.023795,252 295,249.976205 295,248 C295,245.023795 297.023795,243 300,243 C301.981559,243 304,245.023795 304,247 L304,252 L300,252 Z M299,255 C301.902774,255 304,257.023795 304,260 C304,261.976205 301.902774,264 299,264 L288,264 C285.1,264 283,261.976205 283,260 C283,257.023795 285.097226,255 288,255 L299,255 Z M318,260 C318,257.023795 320.02172,255 322,255 C324.975602,255 327,257.023795 327,260 C327,261.976205 324.975602,264 323,264 L318,264 L318,260 L318,260 Z M315,259 C315,261.902774 312.97828,264 311,264 C308.018803,263.993906 306.00736,261.91134 306,259 L306,248 C306,245.1 308.024398,243 310,243 C312.97828,243 315,245.097226 315,248 L315,259 L315,259 Z M310,278 C312.976806,278 315,280.023795 315,283 C315,284.976205 312.976806,287 310,287 C308.020517,287 306,284.976205 306,283 L306,278 L310,278 L310,278 Z M311,275 C308.097226,275 306,272.97828 306,271 C306,268.024398 308.097226,266 311,266 L322,266 C324.902774,266 327,268.024398 327,270 C327,272.97828 324.902774,275 322,275 L311,275 L311,275 Z" id="slack" fill="#767676"></path>
            <path d="M320.153846,386.189542 L320.153846,389.065359 L324.538462,389.065359 C325.345647,389.065359 326,389.709133 326,390.503268 C326,391.297403 325.345647,391.941176 324.538462,391.941176 L324.538462,391.941176 L320.153846,391.941176 L320.153846,394.816993 L321.615385,394.816993 C324.036941,394.816993 326,396.748314 326,399.130719 L326,399.130719 L326,400.568627 C326,401.362762 325.345647,402.006536 324.538462,402.006536 C323.731276,402.006536 323.076923,401.362762 323.076923,400.568627 L323.076923,400.568627 L323.076923,399.130719 C323.076923,398.336584 322.42257,397.69281 321.615385,397.69281 L321.615385,397.69281 L320.153846,397.69281 C320.15394,405.07741 314.468331,411.26154 307,412 L307,412 L307,386.189542 L320.153846,386.189542 Z M304,386.189542 L304,412 C296.531669,411.26154 290.84606,405.07741 290.846154,397.69281 L290.846154,397.69281 L289.384615,397.69281 C288.57743,397.69281 287.923077,398.336584 287.923077,399.130719 L287.923077,399.130719 L287.923077,400.568627 C287.923077,401.362762 287.268724,402.006536 286.461538,402.006536 C285.654353,402.006536 285,401.362762 285,400.568627 L285,400.568627 L285,399.130719 C285,396.748314 286.963059,394.816993 289.384615,394.816993 L289.384615,394.816993 L290.846154,394.816993 L290.846154,391.941176 L286.461538,391.941176 C285.654353,391.941176 285,391.297403 285,390.503268 C285,389.709133 285.654353,389.065359 286.461538,389.065359 L286.461538,389.065359 L290.846154,389.065359 L290.846154,386.189542 L304,386.189542 Z M324.538462,379 C325.345647,379 326,379.643774 326,380.437908 L326,380.437908 L326,381.875817 C326,384.258222 324.036941,386.189542 321.615385,386.189542 L321.615385,386.189542 L320.153846,386.189542 L320.153846,383.313725 L321.615385,383.313725 C322.42257,383.313725 323.076923,382.669952 323.076923,381.875817 L323.076923,381.875817 L323.076923,380.437908 C323.076923,379.643774 323.731276,379 324.538462,379 Z M286.461538,379 C287.268724,379 287.923077,379.643774 287.923077,380.437908 L287.923077,380.437908 L287.923077,381.875817 C287.923077,382.669952 288.57743,383.313725 289.384615,383.313725 L289.384615,383.313725 L290.846154,383.313725 L290.846154,386.189542 L289.384615,386.189542 C286.963059,386.189542 285,384.258222 285,381.875817 L285,381.875817 L285,380.437908 C285,379.643774 285.654353,379 286.461538,379 Z M315,367 C315.836151,366.914221 316.38266,367.079884 317,367 C317.100298,367.86859 317.213489,368.427958 317,369 L317,369 L316,373 C318.51295,375.555397 320.004842,379.20228 320,383 L320,383 L291,383 C290.995158,379.20228 292.48705,375.555397 295,373 L295,373 L294,369 C293.786511,368.427958 293.899702,367.86859 294,367 C294.61734,367.079884 295.163849,366.914221 296,367 C296.19904,367.171594 296.604148,367.573851 297,368 L297,368 L298,371 C299.934651,369.323139 302.687313,368.506295 305,369 C308.312711,368.506126 311.065421,369.322985 313,371 L313,371 L314,368 C314.395852,367.573851 314.80096,367.171594 315,367 Z" id="Combined-Shape" fill="#767676"></path>
            <path d="M471,242 C471.598393,241.842215 472.41467,242.274652 473,243 L474,246 C475.879815,244.275251 478.6596,243.45709 482,243 C484.449071,243.461246 487.199,244.326216 489,246 L490,243 C490.496055,242.540728 490.903678,242.158486 491,242 C491.926836,241.919179 492.463874,242.080474 493,242 C493.180902,242.84243 493.305882,243.384635 493,244 L492,248 C494.641167,250.517557 496.147759,254.170321 496,258 L498,258 C498.415846,257.974164 499.071429,257.324399 499,257 L499,255 C499.071429,254.270054 499.727012,253.620289 501,254 C501.344417,253.620289 502,254.270054 502,255 L502,257 C502,258.927451 500.033251,260.876748 498,261 L496,261 L496,264 L501,264 C501.344417,263.779331 502,264.429097 502,265 C502,266.032149 501.344417,266.681915 501,267 L496,267 L496,270 L498,270 C500.033251,269.584498 502,271.533795 502,274 L502,275 C502,276.191192 501.344417,276.840957 501,277 C499.727012,276.840957 499.071429,276.191192 499,275 L499,274 C499.071429,273.136848 498.415846,272.487082 498,272 L496,272 C496.142857,280.502345 489.587027,287 482,287 C473.412973,287 466.857143,280.502345 467,272 L465,272 C464.584154,272.487082 463.928571,273.136848 464,274 L464,275 C463.928571,276.191192 463.272988,276.840957 462,277 C461.655583,276.840957 461,276.191192 461,275 L461,274 C461,271.533795 462.966749,269.584498 465,270 L467,270 L467,267 L462,267 C461.655583,266.681915 461,266.032149 461,265 C461,264.429097 461.655583,263.779331 462,264 L467,264 L467,261 L465,261 C462.966749,260.876748 461,258.927451 461,257 L461,255 C461,254.270054 461.655583,253.620289 462,254 C463.272988,253.620289 463.928571,254.270054 464,255 L464,257 C463.928571,257.324399 464.584154,257.974164 465,258 L467,258 C466.857143,254.01504 468.459071,250.424544 471,248 L470,244 C469.616473,243.115945 470.052782,242.306911 471,242 Z M470,261 L470,273 C469.998023,278.362067 474.284232,283.272653 480,284 L480,261 L470,261 Z M483,261 L483,284 C488.715768,283.272653 493.001977,278.362067 493,273 L493,261 L483,261 Z M493,258 C493.004015,254.583445 491.608371,251.328007 489,249 C487.059017,247.083108 484.32871,245.995226 482,246 C478.670303,245.994484 475.938849,247.082416 474,249 C471.389823,251.328551 469.995258,254.583914 470,258 L493,258 L493,258 Z" id="bug" fill="#767676"></path>
            <path d="M569,120 C556.845,120 547,129.864608 547,142.043818 C547,151.798207 553.2975,160.037084 562.0425,162.95789 C563.1425,163.150773 563.555,162.489458 563.555,161.910808 C563.555,161.387268 563.5275,159.651317 563.5275,157.805147 C558,158.824674 556.57,156.454963 556.13,155.214999 C555.8825,154.581239 554.81,152.62485 553.875,152.101309 C553.105,151.687988 552.005,150.668461 553.8475,150.640906 C555.58,150.613352 556.8175,152.239083 557.23,152.900398 C559.21,156.234525 562.3725,155.297663 563.6375,154.719013 C563.83,153.286165 564.4075,152.321748 565.04,151.770652 C560.145,151.219557 555.03,149.318277 555.03,140.886517 C555.03,138.489252 555.8825,136.505308 557.285,134.962241 C557.065,134.411146 556.295,132.151654 557.505,129.12063 C557.505,129.12063 559.3475,128.541979 563.555,131.380121 C565.315,130.884135 567.185,130.636142 569.055,130.636142 C570.925,130.636142 572.795,130.884135 574.555,131.380121 C578.7625,128.514425 580.605,129.12063 580.605,129.12063 C581.815,132.151654 581.045,134.411146 580.825,134.962241 C582.2275,136.505308 583.08,138.461697 583.08,140.886517 C583.08,149.345832 577.9375,151.219557 573.0425,151.770652 C573.84,152.459521 574.5275,153.782151 574.5275,155.848758 C574.5275,158.797119 574.5,161.166829 574.5,161.910808 C574.5,162.489458 574.9125,163.178328 576.0125,162.95789 C584.968256,159.92939 590.99843,151.514677 591,142.043818 C591,129.864608 581.155,120 569,120 Z" id="github" fill="#767676"></path>
            <path d="M393,368 C387.02975,368 386.279,368.0275 384,368 C381.5875,368.242 379.98975,368.6105 379,369 C377.121758,369.707253 375.791852,370.573522 375,372 C373.574209,372.792414 372.708045,374.12216 372,376 C371.6105,376.987 371.23925,378.5875 371,381 C371.0275,383.27625 371,384.02425 371,390 C371,395.97575 371.0275,396.72375 371,399 C371.242,401.4125 371.6105,403.01025 372,404 C372.71875,405.8565 373.4695,407.083 375,408 C375.91425,409.5305 377.14075,410.284 379,411 C379.98975,411.3895 381.58475,411.76075 384,412 C386.27625,411.9725 387.02425,412 393,412 C398.97575,412 399.721,411.9725 402,412 C404.40975,411.758 406.013,411.3895 407,411 C408.880048,410.292473 410.209001,409.426213 411,408 C412.5305,407.083 413.28125,405.8565 414,404 C414.38675,403.01025 414.758,401.4125 415,399 C414.9725,396.72375 415,395.97575 415,390 C415,384.02425 414.9725,383.27625 415,381 C414.758,378.5875 414.38675,376.987 414,376 C413.292034,374.12212 412.425859,372.792358 411,372 C410.208487,370.573108 408.878483,369.706775 407,369 C406.0075,368.6105 404.407,368.23925 402,368 C399.71825,368.0275 398.973,368 393,368 L393,368 L393,368 Z M391,372 L393,372 C398.863688,372.00549 399.558054,372.024705 402,372 C404.012427,372.227831 405.176107,372.587419 406,373 C406.973774,373.284636 407.706564,373.762257 408,375 C409.243501,375.299428 409.718304,376.029584 410,377 C410.41816,377.827526 410.774949,378.991384 411,381 C410.978044,383.446435 411,384.140907 411,390 C411,395.861838 410.978044,396.559055 411,399 C410.774949,401.014106 410.415415,402.175219 410,403 C409.764253,403.902778 409.202407,404.764907 408,405 C407.703819,406.240488 406.973774,406.715364 406,407 C405.178852,407.415326 404.015171,407.772169 402,408 C399.558054,407.975295 398.863688,408 393,408 C387.139056,408 386.441946,407.975295 384,408 C381.987573,407.772169 380.826637,407.415326 380,407 C379.098953,406.761812 378.236147,406.200902 378,405 C376.796983,404.763798 376.234278,403.900852 376,403 C375.58184,402.175219 375.222307,401.011361 375,399 C375.021956,396.55631 375,395.861838 375,390 C375,384.132673 375.021956,383.440945 375,381 C375.225051,378.985894 375.58184,377.822036 376,377 C376.281696,376.024095 376.759244,375.291193 378,375 C378.296181,373.754022 379.026226,373.279146 380,373 C380.826637,372.579184 381.987573,372.222341 384,372 C386.15377,372.030194 386.938705,372.002745 391,372 L391,372 L391,372 Z M405,376 C403.606836,376 402.781519,376.476497 402,377 C401.888354,378.023503 401.888354,378.976497 402,380 C402.781519,380.523503 403.606836,381 405,381 C405.880712,381 407,379.880712 407,378 C407,377.119288 405.880712,376 405,376 L405,376 Z M394,379 C389.528588,378.936646 385.665067,381.113992 384,385 C381.476419,388.282591 381.476419,392.717409 384,396 C385.665067,399.886008 389.528588,402.063354 394,402 C399.959959,401.900607 405,396.781322 405,391 C405,384.218678 399.959959,379.099393 394,379 Z M394,383 C397.642136,383 401,386.357864 401,391 C401,394.642136 397.642136,398 394,398 C389.357864,398 386,394.642136 386,391 C386,386.357864 389.357864,383 394,383 Z" id="instagram" fill="#767676"></path>
            <path d="M225.249634,374.875273 C225.249222,371.54666 227.634195,368.696051 230.911024,368.108567 C234.187854,367.521082 237.414823,369.365557 238.571127,372.486937 C239.72743,375.608316 238.480762,379.109558 235.611815,380.7981 C232.742868,382.486642 229.07614,381.877219 226.907824,379.351468 L208.433993,387.929925 C208.85869,389.27564 208.85869,390.719466 208.433993,392.065181 L226.907824,400.643638 C229.208314,397.968549 233.160778,397.469175 236.054491,399.488003 C238.948205,401.506831 239.843471,405.388272 238.126289,408.470312 C236.409107,411.552352 232.637109,412.834138 229.39725,411.436581 C226.157391,410.039023 224.501774,406.415962 225.565873,403.052205 L207.092042,394.473748 C205.219033,396.656232 202.185162,397.442195 199.487847,396.443711 C196.790531,395.445227 195,392.873382 195,389.997553 C195,387.121724 196.790531,384.549879 199.487847,383.551395 C202.185162,382.552911 205.219033,383.338874 207.092042,385.521358 L225.565873,376.942901 C225.355586,376.273857 225.248939,375.576577 225.249634,374.875273 Z" id="share-fill" fill="#767676"></path>
            <g id="189724" transform="translate(550.000000, 240.000000)" fill="#767676" fill-rule="nonzero">
                <path d="M0,17.5871981 C0,15.5296429 0.443410853,13.4867845 1.33527132,11.4635219 C2.22713178,9.44025924 3.50193798,7.55906591 5.16472868,5.82973975 C6.82751938,4.10041359 9.00930233,2.69441753 11.7151163,1.61665052 C14.4209302,0.538883506 17.4189922,0 20.7093023,0 C26.0503876,0 30.4341085,1.6019537 33.8604651,4.80096214 C37.2868217,7.99997059 39,11.7721551 39,16.1175158 C39,21.7023085 37.5488372,26.3171109 34.6414729,29.957024 C31.7341085,33.5969371 27.9802326,35.4193432 23.379845,35.4193432 C21.8682171,35.4193432 20.4472868,35.0764173 19.122093,34.3905656 C17.7968992,33.7047138 16.8647287,32.8718939 16.3255814,31.8921057 L14.3100775,39.6324324 C14.1437984,40.2545979 13.922093,40.8816623 13.6550388,41.5185247 C13.3879845,42.155387 13.0906977,42.7677546 12.7732558,43.3556275 C12.455814,43.9435004 12.1333333,44.4970808 11.8158915,45.0212675 C11.4984496,45.5454541 11.175969,46.0353482 10.8585271,46.4909498 C10.5410853,46.9465513 10.2639535,47.3335676 10.0271318,47.6422009 C9.79031008,47.9508342 9.57364341,48.2202759 9.37209302,48.4505261 L9.06976744,48.8424414 C8.96899225,48.9747128 8.83294574,49.0237022 8.66666667,48.9894096 C8.5003876,48.9551171 8.3996124,48.8571382 8.36434109,48.6954732 C8.36434109,48.6611806 8.33914729,48.4358293 8.28875969,48.0096214 C8.23837209,47.5834136 8.1879845,47.13761 8.1375969,46.6624127 C8.0872093,46.1872154 8.03682171,45.5748478 7.98643411,44.8253098 C7.93604651,44.0757719 7.92093023,43.3458297 7.93604651,42.6452811 C7.95116279,41.9447325 8.00155039,41.1658009 8.0872093,40.3182841 C8.17286822,39.4707673 8.29883721,38.6869368 8.46511628,37.9667925 C8.83294574,36.433424 10.0775194,31.3189296 12.1937984,22.6331073 C11.9267442,22.1089206 11.7050388,21.4818561 11.5387597,20.747015 C11.3724806,20.0121738 11.2868217,19.414503 11.2868217,18.9589015 L11.2364341,18.2240604 C11.2364341,16.1322126 11.7806202,14.3930886 12.874031,13.0066883 C13.9674419,11.620288 15.2825581,10.9246384 16.8294574,10.9246384 C18.074031,10.9246384 19.0364341,11.3263515 19.7267442,12.1248789 C20.4170543,12.9234063 20.7596899,13.9276892 20.7596899,15.1377276 C20.7596899,15.8872655 20.6186047,16.8131654 20.3313953,17.9056292 C20.044186,18.9980931 19.6662791,20.2571209 19.1976744,21.6778138 C18.7290698,23.0985066 18.3914729,24.2497578 18.1899225,25.1315671 C17.8523256,26.6012494 18.1496124,27.8749741 19.0717054,28.9527411 C19.9937984,30.0305081 21.2282946,30.5693916 22.7751938,30.5693916 C25.4306202,30.5693916 27.6224806,29.1095072 29.3507752,26.1848395 C31.0790698,23.2601717 31.9457364,19.7280353 31.9457364,15.5786323 C31.9457364,12.4090175 30.8875969,9.82237663 28.7713178,7.81381084 C26.6550388,5.80524504 23.6972868,4.80096214 19.9031008,4.80096214 C15.6705426,4.80096214 12.2341085,6.12367621 9.59883721,8.76910433 C6.96356589,11.4145324 5.64341085,14.5841473 5.64341085,18.2730498 C5.64341085,20.4628764 6.28333333,22.3048782 7.55813953,23.8088531 C7.99651163,24.2987472 8.12751938,24.8229339 7.96124031,25.3765142 C7.89573643,25.5381792 7.79496124,25.9153977 7.65891473,26.5032706 C7.52286822,27.0911435 7.42209302,27.468362 7.35658915,27.630027 C7.29108527,27.9876497 7.11976744,28.2276978 6.85271318,28.3403735 C6.58565891,28.4530491 6.28333333,28.4481502 5.94573643,28.3158788 C3.96550388,27.5320482 2.47906977,26.1848395 1.48643411,24.2742525 C0.49379845,22.3636655 0,20.1346474 0,17.5871981 Z" id="Path"></path>
            </g>
            <path d="M481,375 L481,375 C483.64704,375.008275 495.101506,375.091022 498,376 C500.090015,376.441377 501.572302,377.933272 502,380 C502.35921,380.888869 502.554472,382.27627 503,384 L503,384 L503,385 L503,385 C502.975248,387.519708 502.99725,389.880772 503,390 L503,391 C502.99725,391.138535 502.972498,393.659578 503,396 L503,397 L503,397 C502.590224,398.43963 502.386712,400.006317 502,401 C501.573821,403.067606 500.090895,404.560144 498,405 C494.99975,405.93656 482.874242,405.997242 481,406 L481,406 C479.95356,406 476.43884,405.98345 473,406 L472,406 L472,406 L472,406 L471,406 C468.053566,405.655218 465.146634,405.437316 464,405 C461.907053,404.557879 460.424279,403.066544 460,401 C459.610538,400.009076 459.407025,398.43963 459,397 L459,397 L459,396 C459.089786,394.41644 459.014576,392.54352 459,391 L459,390 C459.0055,389.740101 459.027502,387.69072 459,385 L459,385 L459,385 L459,385 L459,384 L459,384 C459.445528,382.279028 459.64079,380.888869 460,380 C460.426179,377.935153 461.909105,376.442614 464,376 C465.149384,375.5682 468.056316,375.34754 471,375 L472,375 L472,375 L472,375 L473,375 C475.373707,375.060795 477.992139,375.01298 481,375 L481,375 L481,375 Z M477,384 L477,397 L488,391 L477,384 Z" id="youtube" fill="#767676"></path>
        </g>
    </g>
</svg>