<?xml version="1.0" encoding="UTF-8"?>
<svg width="700px" height="531px" viewBox="0 0 700 531" version="1.1" xmlns="http://www.w3.org/2000/svg" xmlns:xlink="http://www.w3.org/1999/xlink">
    <title>icons-norounding</title>
    <g id="Page-1" stroke="none" stroke-width="1" fill="none" fill-rule="evenodd">
        <g id="icons-norounding">
            <rect id="Rectangle" fill="#f2f2f2" x="0" y="0" width="699.633" height="530.3"></rect>
            <path d="M233.125119,245.751464 C230.846981,245.751464 229.000186,247.598259 229.000186,249.876396 C229.000186,252.154533 230.846981,254.001328 233.125119,254.001328 C235.403256,254.001328 237.250051,252.154533 237.250051,249.876396 C237.250051,247.598259 235.403256,245.751464 233.125119,245.751464 Z M226.250232,249.876396 C226.24982,246.547239 228.634839,243.696165 231.911733,243.108584 C235.188628,242.521004 238.415661,244.36578 239.571987,247.48767 C240.728314,250.609559 239.481621,254.111373 236.612617,255.800191 C233.743614,257.489009 230.076813,256.879487 227.908454,254.353322 L209.434259,262.933181 C209.858963,264.279116 209.858963,265.723178 209.434259,267.069113 L227.908454,275.648972 C230.20899,272.973445 234.161532,272.47399 237.055302,274.493148 C239.949073,276.512305 240.844357,280.39438 239.127141,283.476924 C237.409925,286.559468 233.637853,287.841463 230.39793,286.443677 C227.158007,285.045891 225.502357,281.422238 226.566477,278.057932 L208.092281,269.478073 C206.219235,271.660914 203.185304,272.447005 200.487935,271.448358 C197.790566,270.449711 196,267.877446 196,265.001147 C196,262.124848 197.790566,259.552583 200.487935,258.553936 C203.185304,257.555289 206.219235,258.34138 208.092281,260.524221 L226.566477,251.944362 C226.356185,251.275209 226.249536,250.577815 226.250232,249.876396 Z M202.875617,260.876215 C200.59748,260.876215 198.750685,262.72301 198.750685,265.001147 C198.750685,267.279284 200.59748,269.126079 202.875617,269.126079 C205.153754,269.126079 207.000549,267.279284 207.000549,265.001147 C207.000549,262.72301 205.153754,260.876215 202.875617,260.876215 L202.875617,260.876215 Z M233.125119,276.000966 C230.846981,276.000966 229.000186,277.847761 229.000186,280.125898 C229.000186,282.404035 230.846981,284.25083 233.125119,284.25083 C235.403256,284.25083 237.250051,282.404035 237.250051,280.125898 C237.250051,277.847761 235.403256,276.000966 233.125119,276.000966 Z" id="share" fill="#767676"></path>
            <path d="M145.197143,241 C147.844572,241 150,243.155429 150,245.826286 L150,245.826286 L150,287.857143 L144.962857,283.405714 L142.128,280.781714 L139.129143,277.993714 L140.370857,282.328 L113.802857,282.328 C111.155429,282.328 109,280.172572 109,277.501714 L109,277.501714 L109,245.826286 C109,243.155429 111.155429,241 113.802857,241 L113.802857,241 Z M125.915429,251.91752 L125.838137,251.917788 C125.330489,251.926267 122.399013,252.077455 119.332,254.377714 C119.332,254.377714 115.958286,260.492572 115.958286,268.036572 C115.958286,268.036572 117.926286,271.433714 123.104,271.597714 C123.104,271.597714 123.658789,270.922972 124.240567,270.197248 L124.458968,269.92393 C124.531503,269.83284 124.603429,269.742172 124.673714,269.653143 C121.698286,268.762857 120.573714,266.888572 120.573714,266.888572 C120.573714,266.888572 120.808,267.052572 121.229714,267.286857 C121.253143,267.310286 121.276571,267.333714 121.323429,267.357143 C121.393714,267.404 121.464,267.427429 121.534286,267.474286 C122.08544,267.778714 122.656885,268.044866 123.244571,268.270857 C124.359476,268.710906 125.512273,269.048118 126.688572,269.278286 C128.692198,269.663207 130.750032,269.671153 132.756572,269.301714 C133.857714,269.114286 134.982286,268.786286 136.153714,268.294286 C136.973714,267.989714 137.887429,267.544572 138.848,266.912 C138.848,266.912 137.676572,268.833143 134.607429,269.7 C135.310286,270.590286 136.153714,271.597714 136.153714,271.597714 C141.331429,271.433714 143.322857,268.036572 143.322857,268.036572 C143.322857,261.771216 140.995857,256.491603 140.207043,254.881891 L140.118404,254.703308 C140.01117,254.490139 139.949143,254.377714 139.949143,254.377714 C136.88213,252.077455 133.950654,251.926267 133.443006,251.917788 L133.365714,251.91752 L133.037714,252.292571 C136.805282,253.445004 138.665107,255.079613 138.855161,255.25296 L138.871429,255.268 C135.281467,253.287979 131.149606,252.515822 127.086857,253.065714 C126.946286,253.065714 126.829143,253.089143 126.688572,253.112571 C125.868571,253.182857 123.877143,253.487429 121.370286,254.588571 C120.503429,254.986857 119.988,255.268 119.988,255.268 C119.988,255.268 121.932571,253.417143 126.149714,252.198857 L126.149714,252.198857 L125.915429,251.91752 L125.915429,251.91752 Z M125.259429,260.656572 C126.594857,260.656572 127.672572,261.828 127.649143,263.257143 C127.649143,264.686286 126.594857,265.857714 125.259429,265.857714 C123.947429,265.857714 122.869714,264.686286 122.869714,263.257143 C122.869714,261.828 123.924,260.656572 125.259429,260.656572 Z M133.810857,260.656572 C135.146286,260.656572 136.200572,261.828 136.200572,263.257143 C136.200572,264.686286 135.146286,265.857714 133.810857,265.857714 C132.498857,265.857714 131.421143,264.686286 131.421143,263.257143 C131.421143,261.828 132.475429,260.656572 133.810857,260.656572 Z" id="Combined-Shape" fill="#767676"></path>
            <path d="M152.003,390.136242 C152.003,377.910437 142.15306,368 130.00425,368 C117.84994,368.00275 108,377.910437 108,390.138992 C108,401.185115 116.046043,410.342094 126.561445,412.003 L126.561445,396.535129 L120.979263,396.535129 L120.979263,390.138992 L126.566945,390.138992 L126.566945,385.258019 C126.566945,379.711585 129.853008,376.648259 134.876973,376.648259 C137.285836,376.648259 139.801943,377.079984 139.801943,377.079984 L139.801943,382.524675 L137.027351,382.524675 C134.296756,382.524675 133.444304,384.232328 133.444304,385.983978 L133.444304,390.136242 L139.543458,390.136242 L138.570013,396.532379 L133.441555,396.532379 L133.441555,412.00025 C143.956957,410.339345 152.003,401.182365 152.003,390.136242 Z" id="facebook" fill="#767676"></path>
            <path d="M591.140237,386.201122 C591.399114,387.691281 591.528182,389.201095 591.526015,390.713572 C591.526015,397.46837 589.111577,403.179699 584.909949,407.04553 L584.915499,407.04553 C581.241155,410.43958 576.19032,412.404411 570.201473,412.404411 C557.939938,412.404411 548,402.464473 548,390.202938 C548,377.941403 557.939938,368.001465 570.201473,368.001465 C575.712817,367.936919 581.035358,370.007459 585.054258,373.779398 L578.715738,380.117919 C576.424487,377.933779 573.366564,376.73772 570.201473,376.787698 C564.409664,376.787698 559.489262,380.695157 557.735346,385.956906 C556.805399,388.714067 556.805399,391.700135 557.735346,394.457295 L557.743671,394.457295 C559.505913,399.710719 564.417989,403.618178 570.209798,403.618178 C573.201447,403.618178 575.771267,402.852227 577.76385,401.497937 L577.755524,401.497937 C580.093517,399.949049 581.696692,397.511701 582.193043,394.751465 L570.201473,394.751465 L570.201473,386.203898 L591.140237,386.203898 L591.140237,386.201122 Z" id="google" fill="#767676"></path>
            <path d="M196,123.1515 C196,121.41075 197.4465,120 199.23125,120 L236.76875,120 C238.5535,120 240,121.41075 240,123.1515 L240,160.8485 C240,162.58925 238.5535,164 236.76875,164 L199.23125,164 C197.4465,164 196,162.58925 196,160.8485 L196,123.1515 Z M209.59325,156.8335 L209.59325,136.96475 L202.9905,136.96475 L202.9905,156.8335 L209.59325,156.8335 Z M206.29325,134.2505 C208.595,134.2505 210.02775,132.727 210.02775,130.8185 C209.9865,128.86875 208.59775,127.3865 206.33725,127.3865 C204.07675,127.3865 202.6,128.8715 202.6,130.8185 C202.6,132.727 204.03275,134.2505 206.24925,134.2505 L206.29325,134.2505 Z M219.79025,156.8335 L219.79025,145.73725 C219.79025,145.14325 219.83425,144.54925 220.01025,144.12575 C220.486,142.9405 221.57225,141.71125 223.39825,141.71125 C225.788,141.71125 226.74225,143.53175 226.74225,146.20475 L226.74225,156.8335 L233.345,156.8335 L233.345,145.4375 C233.345,139.3325 230.089,136.4945 225.744,136.4945 C222.2405,136.4945 220.67025,138.4195 219.79025,139.77525 L219.79025,139.844 L219.74625,139.844 C219.760855,139.821044 219.775522,139.798127 219.79025,139.77525 L219.79025,136.96475 L213.19025,136.96475 C213.27275,138.82925 213.19025,156.8335 213.19025,156.8335 L219.79025,156.8335 L219.79025,156.8335 Z" id="linkedin" fill="#767676"></path>
            <path d="M328,142 C328,154.150264 318.150264,164 306,164 C293.849736,164 284,154.150264 284,142 C284,129.849736 293.849736,120 306,120 C318.150264,120 328,129.849736 328,142 Z M306.78925,136.2415 C304.64975,137.1325 300.37075,138.975 293.95775,141.769 C292.91825,142.1815 292.371,142.5885 292.3215,142.9845 C292.239,143.65275 293.07775,143.91675 294.219,144.277 L294.70025,144.42825 C295.82225,144.794 297.33475,145.22025 298.1185,145.23675 C298.8335,145.25325 299.62825,144.96175 300.5055,144.35675 C306.49775,140.3115 309.5915,138.26825 309.784,138.22425 C309.9215,138.19125 310.114,138.15275 310.2405,138.26825 C310.36975,138.381 310.356,138.59825 310.34225,138.656 C310.25975,139.01075 306.968,142.06875 305.26575,143.65275 C304.735,144.14775 304.35825,144.497 304.28125,144.57675 C304.111693,144.750034 303.939337,144.920556 303.76425,145.08825 C302.71925,146.09475 301.93825,146.84825 303.8055,148.08025 C304.70475,148.67425 305.42525,149.161 306.143,149.6505 C306.924,150.184 307.705,150.71475 308.717,151.38025 C308.97275,151.54525 309.22025,151.724 309.4595,151.8945 C310.36975,152.5435 311.192,153.1265 312.20125,153.033 C312.78975,152.978 313.3975,152.428 313.7055,150.778 C314.43425,146.88125 315.867,138.4415 316.197,134.96275 C316.217137,134.673566 316.205147,134.383041 316.16125,134.0965 C316.135362,133.865283 316.023453,133.652262 315.84775,133.49975 C315.597525,133.327022 315.299233,133.237534 314.99525,133.244 C314.17025,133.25775 312.897,133.7005 306.78925,136.2415 L306.78925,136.2415 Z" id="telegram" fill="#767676"></path>
            <path d="M414.571,118 L414.571,141.66691 L399.353177,156.881774 L392.596274,156.881774 L384.144229,165.333819 L384.144229,156.881774 L374,156.881774 L374,126.452045 L382.452045,118 L414.571,118 Z M411.18959,121.38141 L384.144229,121.38141 L384.144229,146.737545 L391.750182,146.737545 L391.750182,152.654273 L397.66691,146.737545 L404.429729,146.737545 L411.18959,139.977684 L411.18959,121.38141 Z M406.118955,127.298137 L406.118955,137.43645 L402.737545,137.43645 L402.737545,127.298137 L406.118955,127.298137 Z M396.820818,127.298137 L396.820818,137.43645 L393.439408,137.43645 L393.439408,127.298137 L396.820818,127.298137 Z" id="Combined-Shape" fill="#767676"></path>
            <path d="M473.8215,159.752206 C490.426,159.752206 499.50925,145.993954 499.50925,134.083704 C499.50925,133.698704 499.50925,133.308204 499.49275,132.923204 C501.261162,131.64304 502.787415,130.058121 504,128.242704 C502.348114,128.971044 500.597592,129.45107 498.80525,129.667204 C500.693217,128.538708 502.10724,126.763118 502.7845,124.670454 C501.010716,125.721295 499.06929,126.458981 497.04525,126.851204 C494.247594,123.871729 489.798384,123.14096 486.194679,125.069032 C482.590974,126.997104 480.730019,131.10397 481.65625,135.084704 C474.397125,134.720713 467.633437,131.293392 463.047,125.654954 C460.657632,129.78172 461.882605,135.054641 465.8465,137.705454 C464.415235,137.656827 463.015432,137.272493 461.76,136.583454 L461.76,136.707204 C461.765088,141.001552 464.789986,144.699927 468.998,145.556704 C468.223223,145.770142 467.422881,145.876546 466.61925,145.872954 C466.052706,145.874672 465.487296,145.822183 464.93075,145.716204 C466.113539,149.392539 469.503687,151.909451 473.365,151.977954 C470.165526,154.490903 466.213353,155.853822 462.145,155.847204 C461.428132,155.850231 460.711764,155.808902 460,155.723454 C464.129166,158.355931 468.924569,159.753715 473.8215,159.752206 Z" id="twitter" fill="#767676"></path>
            <path d="M409.479594,249.409912 C405.396461,245.288951 399.829861,242.97971 394.028665,243.000134 C381.994742,243.000134 372.187384,252.804873 372.176362,264.841551 C372.176362,268.696705 373.184929,272.447145 375.089083,275.767703 L372,287.090668 L383.584752,284.053942 C386.789585,285.798031 390.379994,286.712212 394.028665,286.713144 L394.039688,286.713144 C406.076366,286.713144 415.880968,276.908542 415.892001,264.860841 C415.897554,259.06153 413.588362,253.499828 409.476838,249.409912 L409.479594,249.409912 Z M394.028665,283.015063 C390.774234,283.016155 387.579623,282.140398 384.780704,280.479864 L384.119348,280.083051 L377.246757,281.885246 L379.08202,275.18075 L378.652139,274.489081 C376.832878,271.596545 375.870715,268.247608 375.877167,264.830529 C375.877167,254.838542 384.025656,246.687301 394.039688,246.687301 C398.85825,246.678686 403.480847,248.594187 406.881016,252.00849 C410.293065,255.409499 412.20566,260.032267 412.193963,264.849818 C412.182886,274.877628 404.03443,283.015063 394.028665,283.015063 L394.028665,283.015063 Z M403.990339,269.418686 C403.447476,269.145876 400.766229,267.82592 400.261945,267.638536 C399.760417,267.459419 399.393915,267.365727 399.035681,267.911345 C398.669179,268.454208 397.622032,269.691495 397.307888,270.046974 C396.993744,270.413475 396.668578,270.45481 396.122959,270.184756 C395.580096,269.909191 393.819236,269.336016 391.735964,267.470441 C390.110131,266.023725 389.021649,264.232553 388.696483,263.68969 C388.382338,263.144071 388.66617,262.851972 388.93898,262.579163 C389.178721,262.336666 389.481843,261.939852 389.754652,261.625708 C390.030217,261.311564 390.121153,261.080089 390.300271,260.716343 C390.479388,260.347086 390.393963,260.032942 390.258936,259.760133 C390.121153,259.487324 389.032672,256.795054 388.572478,255.709328 C388.131574,254.63738 387.682403,254.786185 387.346214,254.772407 C387.03207,254.753117 386.665569,254.753117 386.299067,254.753117 C385.739554,254.767024 385.211209,255.013718 384.841328,255.433763 C384.3398,255.979381 382.937174,257.299338 382.937174,259.991608 C382.937174,262.683877 384.893686,265.271433 385.169251,265.637934 C385.439304,266.004435 389.010627,271.51298 394.491614,273.882838 C395.78677,274.447747 396.80636,274.78118 397.602743,275.0347 C398.911677,275.453559 400.09385,275.390179 401.036283,275.255152 C402.08343,275.095324 404.263149,273.93244 404.723342,272.656574 C405.175269,271.377953 405.175269,270.286715 405.037486,270.057996 C404.902459,269.826522 404.535958,269.691495 403.990339,269.418686 Z" id="whatsapp" fill="#767676"></path>
            <path d="M141,120 C147.075132,120 152,124.924868 152,131 L152,131 L152,153 C152,159.075132 147.075132,164 141,164 L141,164 L119,164 C112.924868,164 108,159.075132 108,153 L108,153 L108,131 C108,124.924868 112.924868,120 119,120 L119,120 Z M131.26225,129.74875 L121.915,129.74875 L121.915,153 L131.47125,153 C136.43225,153 139.41325,150.503 139.41325,146.411 C139.41325,143.3805 137.3205,141.142 134.17725,140.82025 L134.17725,140.82025 L134.17725,140.54525 C136.468,140.1575 138.2555,137.98225 138.2555,135.55125 C138.2555,131.9735 135.6265,129.74875 131.26225,129.74875 L131.26225,129.74875 Z M130.53625,142.4455 C133.93525,142.4455 135.72275,143.71875 135.72275,146.1525 C135.72275,148.61925 134.00125,149.93925 130.74525,149.93925 L130.74525,149.93925 L125.52575,149.93925 L125.52575,142.4455 Z M130.42075,132.8095 C133.0965,132.8095 134.66125,134.06625 134.66125,136.21125 C134.66125,138.41675 133.00025,139.59375 129.81025,139.59375 L125.52575,139.59375 L125.52575,132.8095 L130.42075,132.8095 Z" id="Combined-Shape" fill="#767676"></path>
            <path d="M293.2455,270.8025 C293.2455,273.349 291.1665,275.42525 288.62275,275.42525 C286.079,275.42525 284,273.349 284,270.80525 C284,268.2615 286.079,266.1825 288.62,266.1825 L293.2455,266.1825 L293.2455,270.8025 Z M295.572,270.8025 C295.572,268.2615 297.651,266.1825 300.19475,266.1825 C302.7385,266.1825 304.8175,268.2615 304.8175,270.8025 L304.8175,282.38 C304.8175,284.921 302.7385,287 300.1975,287 C297.646931,286.99547 295.579564,284.930562 295.572,282.38 L295.572,270.8025 L295.572,270.8025 Z M300.1975,252.2455 C297.651,252.2455 295.572,250.1665 295.572,247.62275 C295.572,245.079 297.651,243 300.1975,243 C302.744,243 304.8175,245.079 304.8175,247.62 L304.8175,252.2455 L300.1975,252.2455 Z M300.1975,254.572 C302.7385,254.572 304.8175,256.651 304.8175,259.19475 C304.8175,261.7385 302.7385,263.8175 300.1975,263.8175 L288.62,263.8175 C286.08175,263.8175 284,261.7385 284,259.1975 C284,256.651 286.079,254.572 288.62,254.572 L300.1975,254.572 Z M318.75725,259.1975 C318.75725,256.651 320.8335,254.572 323.37725,254.572 C325.921,254.572 328,256.651 328,259.19475 C328,261.7385 325.921,263.8175 323.38,263.8175 L318.75725,263.8175 L318.75725,259.1975 L318.75725,259.1975 Z M316.42525,259.1975 C316.42525,261.7385 314.349,263.8175 311.80525,263.8175 C309.255755,263.811459 307.190058,261.746991 307.1825,259.1975 L307.1825,247.62 C307.1825,245.08175 309.2615,243 311.8025,243 C314.349,243 316.42525,245.079 316.42525,247.62 L316.42525,259.1975 L316.42525,259.1975 Z M311.8025,277.7545 C314.349,277.7545 316.428,279.8335 316.428,282.37725 C316.428,284.921 314.349,287 311.8025,287 C309.256,287 307.17975,284.921 307.17975,282.38 L307.17975,277.7545 L311.79975,277.7545 L311.8025,277.7545 Z M311.8025,275.42525 C309.2615,275.42525 307.1825,273.349 307.1825,270.80525 C307.1825,268.2615 309.2615,266.1825 311.8025,266.1825 L323.38,266.1825 C325.921,266.1825 328,268.2615 328,270.8025 C328,273.349 325.921,275.42525 323.38,275.42525 L311.8025,275.42525 L311.8025,275.42525 Z" id="slack" fill="#767676"></path>
            <path d="M321.142857,386.097854 L321.142857,389.026425 L325.535714,389.026425 C326.344417,389.026425 327,389.682008 327,390.490711 C327,391.299414 326.344417,391.954997 325.535714,391.954997 L325.535714,391.954997 L321.142857,391.954997 L321.142857,394.883568 L322.607143,394.883568 C325.033251,394.883568 327,396.850317 327,399.276425 L327,399.276425 L327,400.740711 C327,401.549414 326.344417,402.204997 325.535714,402.204997 C324.727012,402.204997 324.071429,401.549414 324.071429,400.740711 L324.071429,400.740711 L324.071429,399.276425 C324.071429,398.467723 323.415846,397.81214 322.607143,397.81214 L322.607143,397.81214 L321.142857,397.81214 C321.142952,405.332203 315.446655,411.629776 307.964286,412.381782 L307.964286,412.381782 L307.964286,386.097854 L321.142857,386.097854 Z M305.035714,386.097854 L305.035714,412.381782 C297.553345,411.629776 291.857048,405.332203 291.857143,397.81214 L291.857143,397.81214 L290.392857,397.81214 C289.584154,397.81214 288.928571,398.467723 288.928571,399.276425 L288.928571,399.276425 L288.928571,400.740711 C288.928571,401.549414 288.272988,402.204997 287.464286,402.204997 C286.655583,402.204997 286,401.549414 286,400.740711 L286,400.740711 L286,399.276425 C286,396.850317 287.966749,394.883568 290.392857,394.883568 L290.392857,394.883568 L291.857143,394.883568 L291.857143,391.954997 L287.464286,391.954997 C286.655583,391.954997 286,391.299414 286,390.490711 C286,389.682008 286.655583,389.026425 287.464286,389.026425 L287.464286,389.026425 L291.857143,389.026425 L291.857143,386.097854 L305.035714,386.097854 Z M325.535714,378.776425 C326.344417,378.776425 327,379.432008 327,380.240711 L327,380.240711 L327,381.704997 C327,384.131105 325.033251,386.097854 322.607143,386.097854 L322.607143,386.097854 L321.142857,386.097854 L321.142857,383.169282 L322.607143,383.169282 C323.415846,383.169282 324.071429,382.513699 324.071429,381.704997 L324.071429,381.704997 L324.071429,380.240711 C324.071429,379.432008 324.727012,378.776425 325.535714,378.776425 Z M287.464286,378.776425 C288.272988,378.776425 288.928571,379.432008 288.928571,380.240711 L288.928571,380.240711 L288.928571,381.704997 C288.928571,382.513699 289.584154,383.169282 290.392857,383.169282 L290.392857,383.169282 L291.857143,383.169282 L291.857143,386.097854 L290.392857,386.097854 C287.966749,386.097854 286,384.131105 286,381.704997 L286,381.704997 L286,380.240711 C286,379.432008 286.655583,378.776425 287.464286,378.776425 Z M295.147758,367.479254 C295.510113,367.080729 296.062006,366.913314 296.584702,367.043361 C297.107398,367.173409 297.516497,367.579922 297.649857,368.101782 L297.649857,368.101782 L297.652786,368.101782 L298.502071,370.901497 C300.879815,369.347719 303.6596,368.522232 306.5,368.526425 C309.340425,368.522061 312.120257,369.347562 314.497929,370.901497 L314.497929,370.901497 L315.350143,368.101782 C315.483503,367.579922 315.892602,367.173409 316.415298,367.043361 C316.937994,366.913314 317.489887,367.080729 317.852242,367.479254 C318.214596,367.87778 318.328903,368.443066 318.149857,368.951068 L318.149857,368.951068 L316.949143,372.910497 C319.641167,375.645914 321.147759,379.331382 321.142869,383.169282 L321.142869,383.169282 L291.857131,383.169282 C291.852241,379.331382 293.358833,375.645914 296.050857,372.910497 L296.050857,372.910497 L294.850143,368.951068 C294.671097,368.443066 294.785404,367.87778 295.147758,367.479254 Z" id="Combined-Shape" fill="#767676"></path>
            <path d="M471.825357,242.074472 C472.598393,241.840803 473.41467,242.277111 473.649857,243.049686 L474.502071,245.849401 C476.879815,244.295623 479.6596,243.470136 482.5,243.474329 C485.449071,243.474329 488.199,244.347044 490.497929,245.849401 L491.347214,243.049686 C491.496055,242.54557 491.903678,242.159905 492.415257,242.03918 C492.926836,241.918456 493.463874,242.081195 493.822388,242.465584 C494.180902,242.849973 494.305882,243.397032 494.149857,243.898972 L492.949143,247.858401 C495.641167,250.593818 497.147759,254.279286 497.142857,258.117186 L498.607143,258.117186 C499.415846,258.117186 500.071429,257.461603 500.071429,256.652901 L500.071429,255.188615 C500.071429,254.379912 500.727012,253.724329 501.535714,253.724329 C502.344417,253.724329 503,254.379912 503,255.188615 L503,256.652901 C503,259.079009 501.033251,261.045758 498.607143,261.045758 L497.142857,261.045758 L497.142857,263.974329 L501.535714,263.974329 C502.344417,263.974329 503,264.629912 503,265.438615 C503,266.247318 502.344417,266.902901 501.535714,266.902901 L497.142857,266.902901 L497.142857,269.831472 L498.607143,269.831472 C501.033251,269.831472 503,271.798221 503,274.224329 L503,275.688615 C503,276.497318 502.344417,277.152901 501.535714,277.152901 C500.727012,277.152901 500.071429,276.497318 500.071429,275.688615 L500.071429,274.224329 C500.071429,273.415627 499.415846,272.760044 498.607143,272.760044 L497.142857,272.760044 C497.142857,280.84707 490.587027,287.402901 482.5,287.402901 C474.412973,287.402901 467.857143,280.84707 467.857143,272.760044 L466.392857,272.760044 C465.584154,272.760044 464.928571,273.415627 464.928571,274.224329 L464.928571,275.688615 C464.928571,276.497318 464.272988,277.152901 463.464286,277.152901 C462.655583,277.152901 462,276.497318 462,275.688615 L462,274.224329 C462,271.798221 463.966749,269.831472 466.392857,269.831472 L467.857143,269.831472 L467.857143,266.902901 L463.464286,266.902901 C462.655583,266.902901 462,266.247318 462,265.438615 C462,264.629912 462.655583,263.974329 463.464286,263.974329 L467.857143,263.974329 L467.857143,261.045758 L466.392857,261.045758 C463.966749,261.045758 462,259.079009 462,256.652901 L462,255.188615 C462,254.379912 462.655583,253.724329 463.464286,253.724329 C464.272988,253.724329 464.928571,254.379912 464.928571,255.188615 L464.928571,256.652901 C464.928571,257.461603 465.584154,258.117186 466.392857,258.117186 L467.857143,258.117186 C467.857143,254.122615 469.459071,250.499972 472.050857,247.858401 L470.850143,243.898972 C470.616473,243.125937 471.052782,242.309659 471.825357,242.074472 Z M470.785714,261.045758 L470.785714,272.760044 C470.783687,278.66502 475.177051,283.64835 481.035714,284.386472 L481.035714,261.045758 L470.785714,261.045758 Z M483.964286,261.045758 L483.964286,284.386472 C489.822949,283.64835 494.216313,278.66502 494.214286,272.760044 L494.214286,261.045758 L483.964286,261.045758 Z M494.214295,258.117186 C494.218384,254.781972 492.796733,251.604039 490.307571,249.384186 C488.162604,247.460202 485.38142,246.398219 482.5,246.40288 C479.617571,246.397496 476.835218,247.459526 474.6895,249.384186 C472.201424,251.60457 470.780871,254.78243 470.785702,258.117186 L494.214295,258.117186 L494.214295,258.117186 Z" id="bug" fill="#767676"></path>
            <path d="M570,120 C557.845,120 548,129.845 548,142 C548,151.735 554.2975,159.9575 563.0425,162.8725 C564.1425,163.065 564.555,162.405 564.555,161.8275 C564.555,161.305 564.5275,159.5725 564.5275,157.73 C559,158.7475 557.57,156.3825 557.13,155.145 C556.8825,154.5125 555.81,152.56 554.875,152.0375 C554.105,151.625 553.005,150.6075 554.8475,150.58 C556.58,150.5525 557.8175,152.175 558.23,152.835 C560.21,156.1625 563.3725,155.2275 564.6375,154.65 C564.83,153.22 565.4075,152.2575 566.04,151.7075 C561.145,151.1575 556.03,149.26 556.03,140.845 C556.03,138.4525 556.8825,136.4725 558.285,134.9325 C558.065,134.3825 557.295,132.1275 558.505,129.1025 C558.505,129.1025 560.3475,128.525 564.555,131.3575 C566.315,130.8625 568.185,130.615 570.055,130.615 C571.925,130.615 573.795,130.8625 575.555,131.3575 C579.7625,128.4975 581.605,129.1025 581.605,129.1025 C582.815,132.1275 582.045,134.3825 581.825,134.9325 C583.2275,136.4725 584.08,138.425 584.08,140.845 C584.08,149.2875 578.9375,151.1575 574.0425,151.7075 C574.84,152.395 575.5275,153.715 575.5275,155.7775 C575.5275,158.72 575.5,161.085 575.5,161.8275 C575.5,162.405 575.9125,163.0925 577.0125,162.8725 C585.968256,159.85002 591.99843,151.452034 592,142 C592,129.845 582.155,120 570,120 Z" id="github" fill="#767676"></path>
            <path d="M394,368 C388.02975,368 387.279,368.0275 384.93325,368.132 C382.5875,368.242 380.98975,368.6105 379.59,369.155 C378.121758,369.707253 376.791852,370.573522 375.69325,371.69325 C374.574209,372.792414 373.708045,374.12216 373.155,375.59 C372.6105,376.987 372.23925,378.5875 372.132,380.925 C372.0275,383.27625 372,384.02425 372,390.00275 C372,395.97575 372.0275,396.72375 372.132,399.0695 C372.242,401.4125 372.6105,403.01025 373.155,404.41 C373.71875,405.8565 374.4695,407.083 375.69325,408.30675 C376.91425,409.5305 378.14075,410.284 379.58725,410.845 C380.98975,411.3895 382.58475,411.76075 384.92775,411.868 C387.27625,411.9725 388.02425,412 394,412 C399.97575,412 400.721,411.9725 403.0695,411.868 C405.40975,411.758 407.013,411.3895 408.41275,410.845 C409.880048,410.292473 411.209001,409.426213 412.30675,408.30675 C413.5305,407.083 414.28125,405.8565 414.845,404.41 C415.38675,403.01025 415.758,401.4125 415.868,399.0695 C415.9725,396.72375 416,395.97575 416,390 C416,384.02425 415.9725,383.27625 415.868,380.92775 C415.758,378.5875 415.38675,376.987 414.845,375.59 C414.292034,374.12212 413.425859,372.792358 412.30675,371.69325 C411.208487,370.573108 409.878483,369.706775 408.41,369.155 C407.0075,368.6105 405.407,368.23925 403.06675,368.132 C400.71825,368.0275 399.973,368 393.9945,368 L394.00275,368 L394,368 Z M392.02825,371.9655 L394.00275,371.9655 C399.87675,371.9655 400.5725,371.98475 402.89075,372.092 C405.03575,372.18825 406.20175,372.5485 406.97725,372.84825 C408.003,373.247 408.73725,373.7255 409.50725,374.4955 C410.27725,375.2655 410.753,375.997 411.15175,377.0255 C411.45425,377.79825 411.81175,378.96425 411.908,381.10925 C412.01525,383.4275 412.03725,384.12325 412.03725,389.9945 C412.03725,395.86575 412.01525,396.56425 411.908,398.8825 C411.81175,401.0275 411.4515,402.19075 411.15175,402.96625 C410.79904,403.921488 410.236074,404.785204 409.5045,405.4935 C408.7345,406.2635 408.003,406.73925 406.9745,407.138 C406.2045,407.4405 405.0385,407.798 402.89075,407.897 C400.5725,408.0015 399.87675,408.02625 394.00275,408.02625 C388.12875,408.02625 387.43025,408.0015 385.112,407.897 C382.967,407.798 381.80375,407.4405 381.02825,407.138 C380.072622,406.785783 379.208097,406.223841 378.49825,405.4935 C377.766065,404.784092 377.202238,403.919558 376.84825,402.9635 C376.5485,402.19075 376.18825,401.02475 376.092,398.87975 C375.9875,396.5615 375.9655,395.86575 375.9655,389.989 C375.9655,384.115 375.9875,383.422 376.092,381.10375 C376.191,378.95875 376.5485,377.79275 376.851,377.01725 C377.24975,375.9915 377.72825,375.25725 378.49825,374.48725 C379.26825,373.71725 379.99975,373.2415 381.02825,372.84275 C381.80375,372.54025 382.967,372.18275 385.112,372.08375 C387.1415,371.99025 387.928,371.96275 392.02825,371.96 L392.02825,371.9655 L392.02825,371.9655 Z M405.74525,375.6175 C404.802069,375.6175 403.930533,376.120681 403.458943,376.9375 C402.987352,377.754319 402.987352,378.760681 403.458943,379.5775 C403.930533,380.394319 404.802069,380.8975 405.74525,380.8975 C407.203282,380.8975 408.38525,379.715532 408.38525,378.2575 C408.38525,376.799468 407.203282,375.6175 405.74525,375.6175 L405.74525,375.6175 Z M394.00275,378.703 C389.924219,378.639368 386.127974,380.778801 384.070118,384.300689 C382.012262,387.822576 382.012262,392.180174 384.070118,395.702061 C386.127974,399.223949 389.924219,401.363382 394.00275,401.29975 C400.173947,401.203469 405.126226,396.173323 405.126226,390.001375 C405.126226,383.829427 400.173947,378.799281 394.00275,378.703 Z M394.00275,382.66575 C398.053344,382.66575 401.337,385.949406 401.337,390 C401.337,394.050594 398.053344,397.33425 394.00275,397.33425 C389.952156,397.33425 386.6685,394.050594 386.6685,390 C386.6685,385.949406 389.952156,382.66575 394.00275,382.66575 Z" id="instagram" fill="#767676"></path>
            <path d="M226.250232,374.876396 C226.24982,371.547239 228.634839,368.696165 231.911733,368.108584 C235.188628,367.521004 238.415661,369.36578 239.571987,372.48767 C240.728314,375.609559 239.481621,379.111373 236.612617,380.800191 C233.743614,382.489009 230.076813,381.879487 227.908454,379.353322 L209.434259,387.933181 C209.858963,389.279116 209.858963,390.723178 209.434259,392.069113 L227.908454,400.648972 C230.20899,397.973445 234.161532,397.47399 237.055302,399.493148 C239.949073,401.512305 240.844357,405.39438 239.127141,408.476924 C237.409925,411.559468 233.637853,412.841463 230.39793,411.443677 C227.158007,410.045891 225.502357,406.422238 226.566477,403.057932 L208.092281,394.478073 C206.219235,396.660914 203.185304,397.447005 200.487935,396.448358 C197.790566,395.449711 196,392.877446 196,390.001147 C196,387.124848 197.790566,384.552583 200.487935,383.553936 C203.185304,382.555289 206.219235,383.34138 208.092281,385.524221 L226.566477,376.944362 C226.356185,376.275209 226.249536,375.577815 226.250232,374.876396 Z" id="share-fill" fill="#767676"></path>
            <g id="189724" transform="translate(551.000000, 240.000000)" fill="#767676" fill-rule="nonzero">
                <path d="M0,17.6816513 C0,15.6130459 0.443410853,13.5592162 1.33527132,11.5250875 C2.22713178,9.4909588 3.50193798,7.59966239 5.16472868,5.86104877 C6.82751938,4.12243514 9.00930233,2.70888809 11.7151163,1.62533285 C14.4209302,0.541777617 17.4189922,0 20.7093023,0 C26.0503876,0 30.4341085,1.6105571 33.8604651,4.82674604 C37.2868217,8.04293499 39,11.8353783 39,16.204076 C39,21.8188622 37.5488372,26.4584487 34.6414729,30.1179103 C31.7341085,33.7773718 27.9802326,35.6095652 23.379845,35.6095652 C21.8682171,35.6095652 20.4472868,35.2647976 19.122093,34.5752625 C17.7968992,33.8857273 16.8647287,33.0484347 16.3255814,32.0633844 L14.3100775,39.8452811 C14.1437984,40.470788 13.922093,41.1012201 13.6550388,41.7415028 C13.3879845,42.3817854 13.0906977,42.9974418 12.7732558,43.5884719 C12.455814,44.1795021 12.1333333,44.7360554 11.8158915,45.2630573 C11.4984496,45.7900592 11.175969,46.2825843 10.8585271,46.7406326 C10.5410853,47.198681 10.2639535,47.5877758 10.0271318,47.8980666 C9.79031008,48.2083574 9.57364341,48.4792462 9.37209302,48.710733 L9.06976744,49.1047531 C8.96899225,49.2377349 8.83294574,49.2869874 8.66666667,49.2525107 C8.5003876,49.2180339 8.3996124,49.1195289 8.36434109,48.9569956 C8.36434109,48.9225188 8.33914729,48.6959573 8.28875969,48.2674604 C8.23837209,47.8389636 8.1879845,47.3907658 8.1375969,46.9130164 C8.0872093,46.4352671 8.03682171,45.8196107 7.98643411,45.0660473 C7.93604651,44.3124838 7.92093023,43.5786214 7.93604651,42.8743105 C7.95116279,42.1699996 8.00155039,41.3868847 8.0872093,40.5348163 C8.17286822,39.6827478 8.29883721,38.8947077 8.46511628,38.1706958 C8.83294574,36.6290922 10.0775194,31.4871301 12.1937984,22.7546599 C11.9267442,22.2276581 11.7050388,21.5972259 11.5387597,20.8584383 C11.3724806,20.1196506 11.2868217,19.51877 11.2868217,19.0607216 L11.2364341,18.321934 C11.2364341,16.2188518 11.7806202,14.4703876 12.874031,13.0765416 C13.9674419,11.6826955 15.2825581,10.9833099 16.8294574,10.9833099 C18.074031,10.9833099 19.0364341,11.3871805 19.7267442,12.1899964 C20.4170543,12.9928123 20.7596899,14.0024888 20.7596899,15.2190258 C20.7596899,15.9725892 20.6186047,16.9034617 20.3313953,18.0017926 C20.044186,19.1001236 19.6662791,20.3659132 19.1976744,21.794236 C18.7290698,23.2225588 18.3914729,24.3799928 18.1899225,25.266538 C17.8523256,26.7441133 18.1496124,28.0246786 19.0717054,29.1082338 C19.9937984,30.191789 21.2282946,30.7335667 22.7751938,30.7335667 C25.4306202,30.7335667 27.6224806,29.2658418 29.3507752,26.3254669 C31.0790698,23.3850921 31.9457364,19.833986 31.9457364,15.6622984 C31.9457364,12.475661 30.8875969,9.87512839 28.7713178,7.85577545 C26.6550388,5.83642251 23.6972868,4.82674604 19.9031008,4.82674604 C15.6705426,4.82674604 12.2341085,6.15656383 9.59883721,8.81619941 C6.96356589,11.475835 5.64341085,14.6624724 5.64341085,18.3711865 C5.64341085,20.5727737 6.28333333,22.4246681 7.55813953,23.9367202 C7.99651163,24.4292453 8.12751938,24.9562472 7.96124031,25.5128005 C7.89573643,25.6753338 7.79496124,26.0545781 7.65891473,26.6456083 C7.52286822,27.2366384 7.42209302,27.6158827 7.35658915,27.778416 C7.29108527,28.1379593 7.11976744,28.3792966 6.85271318,28.4925774 C6.58565891,28.6058582 6.28333333,28.6009329 5.94573643,28.4679512 C3.96550388,27.679911 2.47906977,26.3254669 1.48643411,24.404619 C0.49379845,22.4837711 0,20.2427819 0,17.6816513 Z" id="Path"></path>
            </g>
            <path d="M482.140879,375 L482.385636,375 C484.6462,375.00825 496.100276,375.090753 499.188613,375.921276 C501.088614,376.437105 502.57085,377.924579 503.079974,379.826387 C503.357732,380.871417 503.552987,382.254706 503.684991,383.681997 L503.712492,383.968005 L503.772994,384.683025 L503.794994,384.969033 C503.973749,387.482605 503.99575,389.836672 503.9985,390.350936 L503.9985,390.557192 C503.99575,391.090707 503.970999,393.604279 503.772994,396.222353 L503.750993,396.511111 L503.726242,396.797119 C503.588738,398.370164 503.385233,399.932208 503.079974,401.081741 C502.57237,402.984424 501.089494,404.472539 499.188613,404.986852 C495.998523,405.844876 483.873428,405.905378 482.193131,405.908128 L481.802619,405.908128 C480.952845,405.908128 477.438245,405.891628 473.753141,405.765124 L473.285627,405.748624 L473.046371,405.737623 L472.576107,405.718373 L472.105844,405.699122 C469.053257,405.564368 466.146425,405.347112 464.807137,404.984102 C462.906954,404.470281 461.424231,402.983366 460.915776,401.081741 C460.610517,399.934958 460.407012,398.370164 460.269508,396.797119 L460.247507,396.508361 L460.225506,396.222353 C460.089783,394.358898 460.014575,392.491528 460,390.623194 L460,390.287684 C460.0055,389.696418 460.027501,387.653109 460.176005,385.398045 L460.195256,385.114787 L460.203506,384.971783 L460.225506,384.685775 L460.286008,383.970755 L460.313509,383.684747 C460.445513,382.257456 460.640768,380.871417 460.918526,379.829137 C461.42613,377.926454 462.909006,376.438339 464.809887,375.924026 C466.149175,375.566516 469.056007,375.34651 472.108594,375.209006 L472.576107,375.189755 L473.049121,375.173255 L473.285627,375.165005 L473.755891,375.145754 C476.373149,375.060615 478.991491,375.012942 481.610114,375.00275 L482.140879,375.00275 L482.140879,375 Z M477.6005,383.827751 L477.6005,397.077627 L489.032575,390.455439 L477.6005,383.827751 Z" id="youtube" fill="#767676"></path>
        </g>
    </g>
</svg>